<svg version="1.1" id="Layer_1" xmlns="http://www.w3.org/2000/svg" xmlns:xlink="http://www.w3.org/1999/xlink" x="0px" y="0px"
	 width="100%" viewBox="0 0 1024 1024" enable-background="new 0 0 1024 1024" xml:space="preserve">
<path fill="#000000" opacity="1.000000" stroke="none" 
	d="
M440.351440,874.581177 
	C446.202759,876.803101 451.693054,878.892456 458.476532,881.473877 
	C453.020172,883.202209 449.191742,881.568359 445.514496,880.878662 
	C381.108521,868.800415 323.100800,842.452515 271.681763,801.865723 
	C230.093643,769.038818 196.608917,729.253662 170.803864,682.947449 
	C147.500015,641.129456 132.902771,596.383362 126.167343,549.142517 
	C120.993202,512.852234 121.465042,476.469635 126.511871,440.095886 
	C133.645325,388.683289 149.568970,340.214874 175.197662,295.152069 
	C213.433807,227.921555 266.614197,175.996750 336.077332,141.358322 
	C371.642944,123.623215 409.144928,111.803772 448.440216,105.538132 
	C470.537567,102.014694 492.737640,99.750572 515.071289,100.161476 
	C599.580383,101.716270 677.001160,125.301971 744.861145,176.623444 
	C800.213867,218.485855 840.246887,272.426727 867.148560,336.245850 
	C879.616394,365.823395 888.634521,396.452942 893.861938,428.105103 
	C900.966125,471.120972 901.648071,514.208435 894.624146,557.380554 
	C885.528076,613.289185 865.583252,664.915039 834.301636,712.107056 
	C813.366882,743.689575 788.303467,771.569153 759.194946,795.932129 
	C710.592041,836.611267 655.250366,863.408936 593.666077,877.656860 
	C589.090515,878.715454 584.493896,879.979431 579.404297,879.334045 
	C617.991272,858.599487 652.826050,834.038025 671.732361,791.517883 
	C675.720215,796.903442 676.640015,802.199646 677.213867,807.596130 
	C677.770630,812.832092 676.938599,818.069885 677.020020,823.708008 
	C694.324951,816.240967 706.344543,803.394165 716.099609,788.109558 
	C725.912170,772.734863 731.538391,755.887634 732.432861,736.320129 
	C742.696777,743.945312 746.446045,753.709167 748.939514,764.113647 
	C752.212708,763.143066 753.255005,760.919250 754.499390,759.042908 
	C768.154236,738.451904 772.751465,715.751831 770.086853,691.389404 
	C769.941956,690.064331 769.958801,688.693604 769.609680,687.424072 
	C768.653625,683.947815 769.903137,682.463501 773.407654,681.467407 
	C784.333069,678.361877 794.999451,674.507751 804.142273,667.449829 
	C816.110657,658.210632 820.948181,646.010986 819.388123,631.027405 
	C816.444092,602.752747 805.969604,577.602173 788.486938,555.266357 
	C786.894348,553.231506 784.784363,551.434387 784.088928,547.897766 
	C794.949707,548.553345 803.494080,554.453064 813.203735,559.051758 
	C814.919617,551.928650 812.423279,546.008301 810.746155,540.137451 
	C803.434631,514.543152 787.924927,494.114441 769.528198,475.555939 
	C768.476746,474.495270 767.494446,473.357941 766.568604,472.186218 
	C766.312439,471.862000 766.376221,471.285004 766.299194,470.857239 
	C767.654602,469.399078 769.133179,470.093170 770.558350,470.326874 
	C776.486450,471.299042 782.314392,472.654785 788.002319,474.626190 
	C789.653320,475.198425 791.649109,476.515625 793.125366,474.812286 
	C794.724365,472.967377 793.198425,471.044434 792.325684,469.293427 
	C784.742676,454.080688 774.812866,440.611816 762.455261,428.917847 
	C756.869690,423.632294 750.946045,418.800934 744.529846,414.563751 
	C743.178040,413.671082 741.641174,412.911896 740.778992,410.624908 
	C751.599182,406.274811 762.312439,409.048309 774.417542,410.907928 
	C769.391174,399.523651 761.284729,392.688202 752.759827,386.265442 
	C744.212036,379.825378 734.333862,375.986847 724.054626,372.844177 
	C725.283875,370.128265 727.412659,370.380066 729.014160,369.847076 
	C738.244141,366.775208 746.272705,361.979340 752.194336,354.091309 
	C753.244385,352.692596 755.017700,351.258118 753.867065,349.263794 
	C752.846741,347.495239 750.815857,348.142090 749.269287,348.361572 
	C742.295471,349.351166 735.348999,349.638306 728.384705,348.331360 
	C727.070007,348.084595 725.743469,347.973328 724.867371,346.782867 
	C724.961609,344.504608 726.695984,343.226349 727.830139,341.660370 
	C735.413330,331.189484 738.507812,319.231140 739.577393,306.597412 
	C739.749146,304.567902 739.539246,302.308441 737.859558,301.080322 
	C735.739746,299.530304 734.281189,301.891693 732.597229,302.727081 
	C731.014771,303.512115 729.745728,305.098450 727.367188,304.603241 
	C726.212219,302.008698 726.802734,299.162537 726.737854,296.417664 
	C725.929077,262.180603 716.523682,230.480576 698.654114,201.294479 
	C696.921326,198.464310 694.863403,195.809265 692.758118,193.235153 
	C682.610535,180.828049 670.727600,178.053101 656.300476,185.064697 
	C638.943237,193.500381 624.978943,206.394623 611.667358,220.027237 
	C598.715515,233.291504 586.925354,247.508636 577.069641,263.269287 
	C576.172546,264.703796 575.722534,266.786469 572.841431,266.966644 
	C571.928589,262.355957 572.620422,257.815063 573.251831,253.300964 
	C573.503967,251.498428 574.304810,249.770874 574.539062,247.968018 
	C574.846069,245.604340 577.266418,242.732071 574.906982,240.977112 
	C572.370239,239.090225 569.950562,241.860825 567.854980,243.276245 
	C560.438843,248.285187 555.322021,255.200226 552.310791,263.564514 
	C551.105713,266.911957 549.605713,267.866028 546.034180,266.794098 
	C524.748718,260.405731 503.363007,260.355072 482.063690,266.701355 
	C478.523438,267.756165 476.941376,266.902374 475.623840,263.642181 
	C472.045319,254.787216 466.468994,247.423019 458.407379,242.123444 
	C456.938416,241.157761 455.363922,239.577957 453.449127,240.926697 
	C451.507202,242.294525 452.573029,244.197876 453.011475,245.949326 
	C454.735626,252.836792 456.236572,259.746033 454.843353,266.992584 
	C452.157440,266.799713 451.884033,264.640045 450.946106,263.233063 
	C433.059998,236.401596 412.070282,212.452255 385.880524,193.376938 
	C378.992157,188.359802 371.648987,184.108932 363.188385,182.164658 
	C353.729065,179.990921 345.773315,182.699722 339.039581,189.451279 
	C328.576233,199.942307 322.240387,212.976639 316.637054,226.391342 
	C306.781860,249.985245 301.083893,274.479919 301.313019,300.189209 
	C301.324646,301.491913 301.133118,302.796448 301.037079,304.088074 
	C298.303406,305.159973 296.834412,303.059937 295.058136,302.122803 
	C290.331482,299.629242 289.198425,300.168121 289.008484,305.450165 
	C288.529053,318.783142 292.623169,330.698334 300.286377,341.492920 
	C301.424438,343.096039 303.021698,344.446289 303.280487,347.225128 
	C296.866455,349.441742 290.226105,349.611145 283.496765,348.963165 
	C280.288116,348.654205 275.857910,346.468353 274.249451,349.471619 
	C272.471527,352.791321 276.627258,355.533630 278.949127,357.953491 
	C284.499054,363.737640 291.482697,367.219391 299.002136,369.747650 
	C300.640381,370.298431 302.577454,370.357758 304.483521,372.672058 
	C282.930725,379.236206 265.018646,390.025757 252.833984,410.911621 
	C265.106842,409.205841 276.187775,406.498810 288.637543,410.896606 
	C264.038055,427.627960 244.845871,447.840118 233.020691,476.066620 
	C243.560364,474.035065 252.322632,470.179443 261.749390,469.949066 
	C262.596375,472.688080 260.416534,473.403625 259.293579,474.620575 
	C250.600250,484.041199 241.391541,493.001678 234.639923,504.075409 
	C229.810074,511.997131 226.182632,520.390747 224.667328,529.505371 
	C223.947342,533.836243 222.166656,534.366455 218.261490,533.853333 
	C203.254608,531.881592 189.690292,535.483582 178.655579,546.118408 
	C161.375427,562.772278 162.046677,589.022278 180.032333,604.988892 
	C182.731232,607.384827 183.488510,608.983459 181.402374,612.383057 
	C167.367142,635.254517 182.488403,665.361816 212.574768,667.490234 
	C217.941269,667.869934 219.954590,668.831116 221.084671,674.567566 
	C225.131973,695.111938 245.095062,707.003662 265.958405,702.096863 
	C272.836517,700.479187 279.313263,697.946594 284.994049,693.628113 
	C285.785248,693.026550 286.588135,692.418396 288.662598,692.733215 
	C276.575378,710.479248 268.267120,728.900879 274.848877,751.799133 
	C281.714752,744.919495 286.924133,737.545349 296.823914,735.418823 
	C293.521698,765.213989 300.248016,790.554443 324.868805,808.912292 
	C325.613647,801.073547 325.928772,793.448242 329.529816,786.482971 
	C330.359436,784.878418 331.103333,783.177368 332.567322,782.252930 
	C334.197113,782.105835 334.448578,783.273743 334.729980,784.134033 
	C343.405731,810.656372 362.135010,828.994385 384.147675,844.553772 
	C401.504456,856.822266 420.407593,866.292175 440.351440,874.581177 
z"/>
<path fill="#000000" opacity="1.000000" stroke="none" 
	d="
M431.102142,567.910461 
	C440.716766,582.619019 453.259491,592.809875 470.470154,596.088501 
	C480.112061,597.925171 489.731201,597.488586 498.644348,592.539001 
	C503.904022,589.618286 507.104492,585.216309 508.340149,579.137878 
	C506.231720,577.175293 503.434235,577.091858 501.023743,576.161011 
	C484.495941,569.779053 473.974396,558.416565 471.264252,540.514465 
	C469.679993,530.049500 474.394867,519.421082 484.012268,514.999878 
	C503.513611,506.034973 523.525574,505.926025 542.980835,514.950745 
	C555.038879,520.544128 559.380981,534.449707 554.472046,548.027283 
	C549.043762,563.041382 538.430054,572.605347 523.198059,577.148560 
	C522.243347,577.433289 521.270630,577.658569 520.320923,577.957886 
	C520.018616,578.053040 519.763550,578.298218 519.141296,578.695190 
	C519.666260,584.817078 523.486389,588.347046 528.998169,590.231140 
	C541.260376,594.422607 553.576111,593.885620 565.811584,590.031189 
	C575.543945,586.965210 583.840698,581.482971 591.042908,574.356018 
	C593.130737,572.289978 595.241760,571.422668 598.174988,571.907043 
	C649.753784,580.422974 701.221863,589.499390 751.570007,603.868408 
	C765.160706,607.747070 778.888428,611.547974 791.174194,618.878784 
	C810.138733,630.194885 809.886536,648.136719 790.490479,658.726746 
	C777.820190,665.644653 763.757874,668.874878 749.944702,672.601929 
	C723.262756,679.801147 696.241699,685.529968 669.034790,690.318542 
	C633.474609,696.577454 597.741882,701.597229 561.839783,705.584229 
	C516.973938,710.566650 472.056366,714.278320 426.890839,714.327942 
	C411.395691,714.344971 395.998932,713.830994 380.860352,709.505493 
	C349.449707,700.530762 328.055786,674.336670 325.593079,641.609253 
	C323.781433,617.533813 328.933228,595.496460 344.424530,576.680420 
	C355.783722,562.883362 370.998383,555.847290 388.804901,554.728210 
	C399.297607,554.068726 409.771332,555.013000 420.239868,555.777893 
	C423.630951,556.025696 425.756470,557.466492 427.091888,560.593384 
	C428.132355,563.029602 429.623657,565.273193 431.102142,567.910461 
M632.676086,644.787720 
	C632.102905,639.763794 632.077698,634.622131 629.451721,629.974060 
	C629.147034,639.098267 628.605896,648.159912 627.321350,657.149963 
	C626.593689,662.242859 625.543335,667.289795 624.628784,672.355713 
	C624.409912,673.567871 624.307678,674.805908 625.768494,675.232727 
	C626.844543,675.547119 627.777405,674.877258 628.258972,673.974731 
	C629.036255,672.518188 629.772522,671.003357 630.250305,669.429443 
	C632.598206,661.695129 633.027771,653.745850 632.676086,644.787720 
M436.016266,669.312744 
	C434.609222,676.450073 435.587311,683.550476 436.459747,690.632935 
	C436.701508,692.595459 437.375122,694.949463 440.016266,694.532288 
	C442.603516,694.123535 441.834778,691.720581 441.713501,690.029175 
	C441.452667,686.391418 441.095856,682.752197 440.573547,679.143250 
	C439.445007,671.346008 440.095856,663.442322 439.212006,655.574646 
	C436.882019,659.625610 436.215393,663.954407 436.016266,669.312744 
M533.208252,677.562988 
	C533.260315,680.385803 533.217041,683.214783 533.399048,686.029175 
	C533.514282,687.809753 533.643677,690.187622 536.065796,690.036987 
	C538.429871,689.889954 537.766541,687.538879 537.707458,686.017639 
	C537.507690,680.881348 537.092407,675.753601 536.879089,670.617554 
	C536.754150,667.608826 536.856262,664.590698 536.856262,661.576782 
	C533.847717,666.425659 533.280151,671.475830 533.208252,677.562988 
M708.342102,640.598877 
	C708.216309,645.745178 705.711548,650.760986 707.289856,656.029724 
	C710.000183,651.108459 711.208984,645.937195 710.443909,640.439575 
	C710.295837,639.375916 709.849548,636.997925 708.342102,640.598877 
z"/>
<path fill="#000000" opacity="1.000000" stroke="none" 
	d="
M271.386841,516.239563 
	C291.231598,522.432556 299.541779,537.384949 303.221619,555.949158 
	C303.864960,559.194763 304.123230,562.535156 304.316711,565.845947 
	C304.492706,568.856750 305.605377,571.295471 307.770264,573.341187 
	C312.483612,577.795166 316.793762,582.741272 322.706085,585.735229 
	C325.119049,586.957092 325.469971,588.450378 324.404297,590.992798 
	C322.543213,595.432861 320.733063,599.972656 319.667877,604.645325 
	C318.651855,609.102295 316.471039,609.694153 312.492279,608.809814 
	C297.778748,605.539612 283.746216,600.448914 270.230896,593.819275 
	C268.099976,592.773987 266.131836,590.867493 263.302551,591.561218 
	C262.757019,594.150085 264.856567,595.156189 266.188995,596.393616 
	C278.899353,608.197632 293.616974,616.378906 310.614380,620.064453 
	C314.799988,620.972107 316.547119,622.529053 316.146576,627.007568 
	C315.733368,631.628174 316.017426,636.333862 316.289612,640.985107 
	C316.472229,644.105896 315.751099,646.200500 312.340515,646.689514 
	C311.528168,646.806030 310.754272,647.186096 309.960419,647.437805 
	C301.796570,650.026001 295.782379,654.187927 291.900299,662.786560 
	C286.005920,675.842468 276.106354,685.435425 260.836823,687.411926 
	C252.172653,688.533508 244.506485,686.481445 239.009628,679.350037 
	C233.380005,672.046448 234.268158,664.105591 237.762054,656.190430 
	C238.817474,653.799255 240.096573,651.506836 241.821930,648.079102 
	C236.130676,649.499023 231.562515,650.631165 226.998398,651.779297 
	C220.551773,653.400940 214.169403,653.139099 207.784637,651.340393 
	C198.316589,648.673157 192.357605,642.602478 191.222626,632.849243 
	C190.197662,624.041199 194.285278,617.132568 201.214706,611.776306 
	C203.822693,609.760376 207.172607,608.837952 209.416718,606.314514 
	C208.893967,603.611450 206.552017,603.609802 204.828613,602.901184 
	C197.151184,599.744507 190.175446,595.647949 185.472946,588.532776 
	C177.246262,576.085388 181.277023,560.280884 194.607300,553.062805 
	C206.362183,546.697693 218.419250,548.011536 230.430389,552.242371 
	C234.968216,553.840698 239.347961,555.887756 244.837311,558.159729 
	C239.012436,545.705383 234.906174,533.671387 245.600952,522.621155 
	C252.619507,515.369324 261.459961,514.096863 271.386841,516.239563 
z"/>
<path fill="#000000" opacity="1.000000" stroke="none" 
	d="
M649.900879,294.966888 
	C653.798462,289.934204 658.331482,286.014191 663.211487,281.519562 
	C656.352722,277.341248 649.471741,277.718964 642.424927,279.294800 
	C635.551697,280.831818 629.335205,283.913269 623.533081,287.841064 
	C621.733459,285.719604 622.638550,283.871796 623.063232,282.264496 
	C628.383362,262.131744 638.468079,244.793701 653.729065,230.543823 
	C654.701721,229.635620 655.739136,228.788284 656.802612,227.987122 
	C666.849915,220.418106 673.447083,221.737457 679.371704,232.809128 
	C686.453125,246.042770 689.700317,260.492523 692.220520,275.135437 
	C696.151062,297.972260 696.246155,320.862732 693.020386,343.778717 
	C692.778992,345.493622 692.782837,347.449158 690.640137,349.375763 
	C680.552002,340.394287 669.672852,332.380676 655.507629,328.451202 
	C660.691345,321.788116 666.957703,318.793579 673.603821,315.517822 
	C665.749878,306.339600 655.479370,305.556183 644.939514,305.000031 
	C644.888489,300.717987 647.958984,298.304108 649.900879,294.966888 
z"/>
<path fill="#000000" opacity="1.000000" stroke="none" 
	d="
M356.789276,316.711121 
	C365.565216,320.868134 368.838196,323.314362 372.130310,328.542175 
	C358.633331,332.328552 347.557404,339.994324 337.723663,349.525909 
	C334.906281,347.346954 335.239441,344.665497 334.915863,342.324341 
	C330.927460,313.468658 332.677490,284.917419 339.754242,256.690491 
	C342.108093,247.301773 345.157288,238.146347 350.357239,229.870331 
	C354.685516,222.981613 360.217224,221.570892 367.407013,225.463852 
	C370.808350,227.305527 373.718018,229.783630 376.432007,232.508179 
	C390.241974,246.371872 399.698730,262.790283 405.030640,281.578430 
	C405.536255,283.359955 406.740326,285.299255 405.086395,287.841217 
	C392.714630,280.535309 379.942841,274.500977 364.230499,281.222076 
	C372.413025,288.115753 379.394684,294.878632 383.785004,304.639618 
	C378.980225,305.249542 374.796448,305.700867 370.639313,306.328766 
	C365.582397,307.092590 361.110779,309.300568 357.159454,312.474091 
	C355.917328,313.471741 353.586700,314.727325 356.789276,316.711121 
z"/>
<path fill="#000000" opacity="1.000000" stroke="none" 
	d="
M409.507751,456.724518 
	C415.901276,445.289429 427.370941,439.602448 438.385651,442.147369 
	C451.324860,445.136932 459.381714,458.431305 456.281189,471.676270 
	C452.802185,486.537933 439.753998,495.868164 426.675903,492.845856 
	C412.613770,489.596130 404.154297,476.446350 407.359039,462.697540 
	C407.807953,460.771637 408.668396,458.941620 409.507751,456.724518 
M430.782959,464.445587 
	C434.531342,462.670929 436.733093,459.954132 434.992310,455.737671 
	C433.659210,452.508728 430.893219,450.855530 427.353271,451.839111 
	C423.860413,452.809631 422.089508,455.595520 422.607239,459.053375 
	C423.198547,463.002411 425.825317,465.088043 430.782959,464.445587 
z"/>
<path fill="#000000" opacity="1.000000" stroke="none" 
	d="
M571.809570,462.377716 
	C574.911072,448.030457 583.783508,440.955658 597.204285,441.712585 
	C609.649353,442.414459 620.308838,453.544128 621.638428,467.224426 
	C622.756897,478.732361 614.369507,489.802216 602.255066,492.807098 
	C588.073425,496.324738 572.719116,484.265564 571.749329,468.806152 
	C571.624756,466.820160 571.758179,464.817932 571.809570,462.377716 
M594.559814,454.170990 
	C589.586243,450.396027 584.406494,451.404083 583.299622,456.433685 
	C582.640869,459.426880 583.390869,462.066772 586.127625,463.781281 
	C588.458252,465.241364 590.938232,465.196442 593.120728,463.586395 
	C596.251587,461.276794 596.652588,458.205566 594.559814,454.170990 
z"/>
</svg>